# xmcd CD database file
# Copyright (C) 1995-1998 Ti Kan
#
# Track frame offsets:
#	150
#	16077
#	37479
#	50471
#	69618
#	90143
#	102849
#	117516
#	129357
#	152436
#
# Disc length: 2194 seconds
#
# Revision: 1
# Processed by: cddbd v1.4PL0 Copyright (c) Steve Scherf et al.
# Submitted via: CDex 1.30Release
#
DISCID=7808900a
DTITLE=Various Artist - Aligator Early Years [promotional]
DYEAR=2001
DGENRE=Blues
TTITLE0=Hound Dog Taylor - Ain't Got Nobody
TTITLE1=Lonnie Brooks - Cold Lonely Nights
TTITLE2=Eddie Shaw and the Wolf Gang - It's Alright
TTITLE3=Fenton Robinson - I Hear Some Blues Downstairs
TTITLE4=San Seals - Sitting At My Window
TTITLE5=Koko Taylor - Trying to Make a Living
TTITLE6=Big Walter Horton - Tell Me Baby
TTITLE7=Detroit Junior - I Got Money
TTITLE8=Magic Slim and the Teardrops - Dirty Mother for You
TTITLE9=James Cotton - High Compression
EXTD=YEAR: 2001 ID3G:   0
EXTT0=
EXTT1=
EXTT2=
EXTT3=
EXTT4=
EXTT5=
EXTT6=
EXTT7=
EXTT8=
EXTT9=
PLAYORDER=
